/* XPM */
static char *fb4dd504276542c992c8ecef8565fa00bn4ncmFomSUjMz46[] = {
/* columns rows colors chars-per-pixel */
"64 64 135 2 ",
"   c None",
".  c #27BEFF",
"X  c #2ABFFF",
"o  c #32BFFE",
"O  c #2EC0FF",
"+  c #36C3FF",
"@  c #3BC4FF",
"#  c #42C7FF",
"$  c #48C7FE",
"%  c #46C8FF",
"&  c #4CC9FF",
"*  c #54CCFF",
"=  c #59CDFF",
"-  c #61CFFF",
";  c #63D1FF",
":  c #6CD3FF",
">  c #73D5FF",
",  c #72D5FF",
"<  c #72D6FF",
"1  c #73D6FF",
"2  c #71D5FF",
"3  c #74D5FE",
"4  c #75D5FE",
"5  c #74D5FF",
"6  c #74D6FE",
"7  c #75D6FE",
"8  c #74D6FF",
"9  c #75D6FF",
"0  c #76D6FE",
"q  c #76D6FF",
"w  c #77D6FF",
"e  c #76D7FF",
"r  c #77D7FF",
"t  c #74D6FF",
"y  c #78D7FF",
"u  c #79D7FF",
"i  c #7AD7FF",
"p  c #7BD7FF",
"a  c #78D7FF",
"s  c #79D8FF",
"d  c #7AD8FF",
"f  c #7BD8FF",
"g  c #7CD8FF",
"h  c #7DD9FF",
"j  c #7ED9FF",
"k  c #7FD9FF",
"l  c #7CD8FF",
"z  c #80D9FF",
"x  c #80DAFF",
"c  c #81DAFF",
"v  c #82DAFF",
"b  c #83DAFF",
"n  c #83DBFF",
"m  c #85DAFF",
"M  c #84DBFF",
"N  c #85DBFF",
"B  c #86DBFF",
"V  c #87DBFF",
"C  c #87DCFF",
"Z  c #83DBFF",
"A  c #88DCFF",
"S  c #8ADDFF",
"D  c #8BDDFF",
"F  c #8CDDFF",
"G  c #8DDDFF",
"H  c #8EDDFF",
"J  c #8EDEFF",
"K  c #8FDEFF",
"L  c #8BDDFF",
"P  c #90DEFF",
"I  c #91DFFF",
"U  c #92DFFF",
"Y  c #93DFFF",
"T  c #92DFFF",
"R  c #95E0FF",
"E  c #96E0FF",
"W  c #97E0FF",
"Q  c #94E0FF",
"!  c #98E0FF",
"~  c #98E1FF",
"^  c #99E1FF",
"/  c #9AE1FF",
"(  c #9BE1FF",
")  c #9BE2FF",
"_  c #9CE2FF",
"`  c #9DE2FF",
"'  c #9EE2FF",
"]  c #9FE3FF",
"[  c #9AE1FF",
"{  c #A0E3FF",
"}  c #A1E3FF",
"|  c #A3E4FF",
" . c #A4E4FF",
".. c #A5E4FF",
"X. c #A5E5FF",
"o. c #A6E5FF",
"O. c #A7E5FF",
"+. c #A5E5FF",
"@. c #A8E6FF",
"#. c #A9E6FF",
"$. c #ABE6FF",
"%. c #ACE6FF",
"&. c #AEE7FF",
"*. c #AFE7FF",
"=. c #ABE6FF",
"-. c #B0E8FF",
";. c #B2E9FF",
":. c #B3E9FF",
">. c #B5E9FF",
",. c #B7E9FF",
"<. c #B7EAFF",
"1. c #B2E8FF",
"2. c #B9EAFF",
"3. c #BCECFF",
"4. c #BFECFF",
"5. c #BAEBFF",
"6. c #C0ECFF",
"7. c #C1EDFF",
"8. c #C3EEFF",
"9. c #C8EFFF",
"0. c #CDF1FF",
"q. c #CDF0FF",
"w. c #D2F2FF",
"e. c #D5F1FF",
"r. c #D9F4FF",
"t. c #DDF5FF",
"y. c #DAF3FE",
"u. c #E4F6FF",
"i. c #E9F7FF",
"p. c #E7F8FF",
"a. c #EAF9FF",
"s. c #EDF9FF",
"d. c #F5FCFF",
"f. c #F5FAFF",
"g. c #FDFEFF",
/* pixels */
"                                                                  =                                                             ",
"                                                                , = #                                                           ",
"                                                              4 , = % + #                                                       ",
"                                                          , 4 u : = & + @ +                                                     ",
"                                                        , 4 u u ; = * @ + + @                                                   ",
"                                                      , u s s 4 - = = # + + + @                                                 ",
"                                                    4 s u s s 4 = = = & @ + + + @ @                                             ",
"                                                , 4 s s u 4 s h = = = * + + @ + + @ @                                           ",
"                                              , s 4 s 4 u u n p = = = = # @ + + + + @ @                                         ",
"                                            4 u s u s u u 4 J , = = = = $ @ + + @ + + + @                                       ",
"                                          : u 4 4 s s s 4 s ` ; * = = = * @ + @ + + + + + +                                     ",
"                                          = , u u s 4 u u M ^ - = = = = = % + + + @ + + + +                                     ",
"                                          = ; n u 4 s s 4 ^ J = = = = = = & @ + + + + + + X                                     ",
"                                          = = n J u 4 u u ..M * = = = = = * @ + + @ + + X X                                     ",
"                                          = * ; ` T s s n >.: = = = = * = = % + + o + X . X                                     ",
"                                            = = s 3.J 4 T 2.= = = = = = = = & @ + @ o X . X                                     ",
"                                            = = : X.9.C -.{ = = = = = = = = * + + + X . . X                                     ",
"                                            = = , h 7.0.w.M = = * = = = = = = # + O . . X X                                     ",
"                                            = ; s 8 D t.d.#.J p : ; = = * = * & O . . . X                                       ",
"                                            = : 8 s 8 #.a.7.*.{ J , * % % # # # O . . . X                                       ",
"                                            = 4 u 4 4 ` 3.# + + + + + + + + # % X . . . X                                       ",
"                        & @ @ @ # @ @ # # $ ; 4 s s 8 ` 2.# + + + + @ + @ + & & X . . X X                                       ",
"                      : = # @ + @ + @ + @ @ : u u 4 4 ^ >.# + + + @ + + + # * & X . . . .                                       ",
"                      4 ; * # @ + + + + + # : u u u 4 Y >.% + + + + + + @ * = % X . . . O           , , - #                     ",
"                      u : = * % @ + + + + # : s s s 4 R ;.% + + + + + + & = = % . . . . .       , 4 4 , = @                     ",
"                    4 u : = = * $ @ + + + # ; s u 4 4 Q -.# + + + @ @ # * = = % . . . . + : 4 4 u s 4 : * # @                   ",
"                    4 u s ; = = = & @ + + @ ; u s s 8 J &.% + @ + + + & = = = # . . O @ : 4 s s 4 s u = = % + @                 ",
"                  , s 4 n : = = = = & @ + + = u 4 s 8 D #.# + + + + % = = = = @ O + @ * , s 4 s 4 n u = * % + @ @               ",
"                  4 8 s C 4 = = = = = & @ X = s s s s C | % + + + + * = = = = = = : , * ; h u u s J ; = = & + + @               ",
"                  u s s h D = = = = = = & X * s 4 u 8 8 ` % + + + & = = - : , u s 8 ; & & s u 4 D C = = = & @ + + @             ",
"          - , : , , 8 8 s ` = = = = = * % + * u s 4 , : ` % + @ % * = ; 4 u u 4 u 4 = & + ; h h { : = = = * @ + + + @           ",
"        # = , 4 4 4 8 s 8 ^ ; = = = & @ # % & u s u : : ` % + + * = = ; 8 u u s n : = * + # , ^ T * = = = = + @ + + @           ",
"        @ * ; u s s u s , h , ; 1 ; @ + # * = 8 s 4 ; ; ^ % + % = = = = n s u n C = = * @ + & X.1 * = = = * @ + + @ +           ",
"        @ & = , n 4 u s s , ^ T 1 @ + + % * ; 4 s , = - Y & + * * = = = n D s T < = = * @ + + ; n : = = = = # + + O O           ",
"      + + & = = n n 4 n x ; ^ u + + + + & * ; 4 u : = ; ^ & & = = = = = h X.T T = = = * @ + + # e 1 ; = = * @ O O O O           ",
"      + + & = = ; Y M D ^ = u & + + + + & = ; s 4 - = ; ^ * * = = = = : h ;.4.: = = = = @ + @ + + # & # % & # O O O O           ",
"    @ @ + & * = = , ..#.^ , : , + + + + & = ; 4 , = = : ` - = = = = ; 8 4 #.0.p ; = = * + + + O + + + + @ # O O . X             ",
"    @ + + & = = = * J y.J 4 4 J & + + @ & = = 4 : * = 4 { ; = = = = 4 s h { : : 1 = * = @ + O O + + + + # & O . . O             ",
"  @ + + @ % = = = : J #.R s 8 C s + + @ * * = , ; = ; s ` ; = = = ; 4 4 M Y # + + @ % & @ O . O + + + # * & O . . O             ",
"  @ + + + # = = = : * * | h s s R & + # * = = : = = : s Y ; * = = ; u 4 D D + + + + + # O O O + + + % * = # O O X               ",
"    O + + @ * * % @ + + J D u 4 J 1 + @ * = = ; = ; , s T ; = = = : 8 s J : + + + @ & & . . O + @ % * = * @ . . X               ",
"    X X X @ % @ + + + + ; Q u u 8 Q % @ = = = = = ; 8 s D ; = = = , s 4 J & + + @ & = + . . O O # * = = * O . . X               ",
"      X . . # % + + + + @ D 8 s 8 x , # = = = = = : 4 s C ; = = = 1 8 : x # + # * = * + O . + # * = = = $ X X X o               ",
"      X . . + * * & + + + ; h : s 8 x * = * = = = 4 s s n = = * * 4 : , : + # * * * % O O O # * = = = * # . X X                 ",
"        . . X # = * * # + & h ; : : h 8 = = = = : 8 s 4 h = = & * , ; 8 = % * = = = + O . + * = = * = * + . . X                 ",
"        X X . + * = = * & @ : : = : 1 D = = * = : s s , , ; * @ = ; = h ; * = = = * O . O @ = = = = * @ X . . X                 ",
"          X . . # * = = = * = x , , s J s * = = 4 8 4 : : = % + = = 1 x = = = = * @ O . O * * = = * @ + X . X                   ",
"          O . . + * = = = = 4 3.0.w.r.w.4.C = = s s 8 ; ; & @ + * ; h 8 = = = & @ + O O @ = = = & @ @ @ . . X                   ",
"            X X X @ & * = ` t.g.g.g.g.g.g.a.&.: 4 8 4 , T J u ; ; , x : = = & @ + O . O * = = * @ @ & + . . X                   ",
"            X X X O @ & #.f.g.g.g.g.g.g.g.g.g.8.C C <.u.f.f.s.i.9.Q s = * & @ % & O . O * = & # @ * * + . X X                   ",
"              X . . @ Y d.g.g.d.g.f.f.f.d.g.g.g.w.t.d.g.g.g.g.g.g.p.R * & + & * # . . # = * @ @ * = & . X .                     ",
"              X . . ; a.g.g.f.f.f.f.f.f.f.f.g.g.g.g.g.g.g.f.g.g.g.g.p., + & * * + . O * * + @ & = * + . X X                     ",
"                X + >.g.g.f.f.f.f.f.f.f.f.f.f.f.g.g.g.f.f.f.f.f.d.g.g.7.= * * # O . O & # @ * = * # O . . O                     ",
"                X = s.g.f.f.f.f.f.f.f.f.f.f.f.f.d.d.f.f.f.f.f.f.f.d.g.d.Q & @ + . . + % + * = * # + O . X                       ",
"                  X.g.f.f.f.f.f.f.g.g.g.g.f.f.f.f.f.f.f.f.f.f.f.f.f.d.g.7.# + O . O % % * * * * = , = @ O                       ",
"                  f.d.f.f.f.f.f.f.f.f.f.g.f.f.f.f.f.f.f.f.f.g.f.f.f.f.g.p.* + O . + & * * : ` t.d.d.d.t.X.                      ",
"                  g.f.f.f.i.i.f.t.e.e.e.t.f.f.s.f.f.f.s.s.i.i.s.f.f.f.f.f.2.#.Y : * * = 4 0.g.g.g.g.g.g.g.g.                    ",
"                  f.f.f.y.y.i.y.e.e.e.e.e.e.i.u.i.s.i.y.e.y.e.y.y.i.f.f.f.g.g.g.f.8.u : w.g.g.g.g.g.g.g.g.g.g.                  ",
"              g.g.d.f.y.w.y.y.e.e.e.e.e.e.e.t.t.i.f.s.s.y.e.e.e.e.e.u.f.f.g.g.g.g.g.y.e.g.g.d.f.f.f.f.f.d.g.g.g.                ",
"            g.g.g.f.y.y.e.y.e.e.e.e.e.e.e.e.e.u.i.y.y.u.i.y.e.e.e.e.e.y.f.g.d.d.g.g.g.g.g.f.f.f.f.f.f.f.f.d.g.g.                ",
"          g.g.g.g.i.e.e.e.e.e.e.e.e.e.e.e.e.e.u.e.e.e.e.y.y.e.e.e.e.e.e.i.f.f.f.f.f.g.g.f.f.f.f.f.s.f.f.f.f.f.g.g.g.g.g.g.      ",
"    g.g.g.g.g.f.f.y.e.e.e.e.e.e.e.e.e.e.e.e.e.y.e.e.e.e.e.y.e.e.e.e.e.e.y.s.f.f.f.f.f.f.f.f.u.y.y.y.y.y.u.s.f.g.g.g.g.g.g.g.    ",
"  g.g.g.g.g.f.f.f.y.e.e.e.e.e.e.e.e.e.e.e.e.e.e.e.e.e.e.e.y.e.e.e.e.e.e.e.y.y.y.u.i.f.f.u.y.e.e.e.e.e.e.e.y.u.f.g.g.g.g.g.g.g.  ",
"  g.g.g.g.g.f.i.u.y.y.y.y.e.y.y.e.y.y.e.y.y.e.y.y.y.e.y.e.e.y.y.y.e.y.y.y.y.e.y.e.y.u.i.y.y.y.y.e.y.y.y.e.y.y.i.f.f.f.f.g.g.g.g."
};
