/* XPM */
static char *_cd586f0dbad4bb1d8218f2cfb64b2754iGECionQCW9Mbeq[] = {
/* columns rows colors chars-per-pixel */
"64 64 219 2 ",
"   c None",
".  c #74869F",
"X  c #7586A0",
"o  c #7587A0",
"O  c #7687A0",
"+  c #7688A1",
"@  c #7689A2",
"#  c #7789A2",
"$  c #778AA3",
"%  c #788AA3",
"&  c #798BA4",
"*  c #798CA5",
"=  c #798DA6",
"-  c #7A8DA6",
";  c #7A8DA7",
":  c #7B8EA6",
">  c #7C8FA7",
",  c #7D8FA7",
"<  c #7D90A8",
"1  c #7E90A9",
"2  c #7E91A9",
"3  c #7D90AA",
"4  c #7F92AA",
"5  c #7F93AC",
"6  c #8093AB",
"7  c #8094AE",
"8  c #8397AE",
"9  c #8297B1",
"0  c #849AB3",
"q  c #879AB2",
"w  c #869CB6",
"e  c #889CB3",
"r  c #89A0BA",
"t  c #8EA3B9",
"y  c #92A7BD",
"u  c #8FA8C2",
"i  c #8FA9C3",
"p  c #95AAC0",
"a  c #92ACC5",
"s  c #94AFC9",
"d  c #9BB1C6",
"f  c #97B1CA",
"g  c #96B1CB",
"h  c #97B2CC",
"j  c #9DB4C8",
"k  c #99B5CF",
"l  c #9AB7D1",
"z  c #9CB8D3",
"x  c #9DBAD4",
"c  c #9FBCD6",
"v  c #A1B8CC",
"b  c #A7BED2",
"n  c #A2C0DA",
"m  c #A4C2DD",
"M  c #A5C4DE",
"N  c #B1CADC",
"B  c #B2CBDD",
"V  c #B3CBDE",
"C  c #A8C8E2",
"Z  c #ABCAE3",
"A  c #A9CAE5",
"S  c #AACBE6",
"D  c #ACCDE8",
"F  c #ADCEE9",
"G  c #ADCFEA",
"H  c #AED0EB",
"J  c #AED0EC",
"K  c #AED1EC",
"L  c #AFD1EC",
"P  c #AFD2ED",
"I  c #BAD3E4",
"U  c #BCD5E6",
"Y  c #B0D2EC",
"T  c #B0D2ED",
"R  c #B1D2ED",
"E  c #B1D3ED",
"W  c #B2D3ED",
"Q  c #B2D4EE",
"!  c #B3D4EE",
"~  c #B3D5EE",
"^  c #B4D5EE",
"/  c #B4D6EF",
"(  c #B5D6EF",
")  c #BDD7E8",
"_  c #B6D7F0",
"`  c #B7D7F0",
"'  c #B7D8F0",
"]  c #B8D9F1",
"[  c #B9D9F1",
"{  c #B9DAF1",
"}  c #BCDCF2",
"|  c #BDDDF3",
" . c #BEDDF3",
".. c #BEDEF4",
"X. c #BFDEF4",
"o. c #C0DAEB",
"O. c #C2DCEC",
"+. c #C4DEEE",
"@. c #C0DFF5",
"#. c #C5E0F0",
"$. c #C0E0F5",
"%. c #C1E0F5",
"&. c #C2E1F5",
"*. c #C2E1F6",
"=. c #C4E3F6",
"-. c #C8E2F2",
";. c #CBE6F5",
":. c #C6E5F8",
">. c #CAE8FA",
",. c #CBE8FA",
"<. c #CDE9F8",
"1. c #CEEAF8",
"2. c #CFEAF9",
"3. c #CCE9FA",
"4. c #CCEAFA",
"5. c #CDEBFB",
"6. c #CEEBFB",
"7. c #CEEBFC",
"8. c #CFECFC",
"9. c #D0EDFC",
"0. c #D1EDFC",
"q. c #D0EDFD",
"w. c #D1EDFD",
"e. c #D1EEFD",
"r. c #D2EEFD",
"t. c #D3EFFD",
"y. c #D2EFFE",
"u. c #D3EFFE",
"i. c #D3F0FE",
"p. c #D4F0FE",
"a. c #D4F0FF",
"s. c #D4F1FF",
"d. c #D5F1FF",
"f. c #D6F1FE",
"g. c #D7F1FE",
"h. c #D6F1FF",
"j. c #D7F1FF",
"k. c #D5F2FF",
"l. c #D6F2FF",
"z. c #D7F2FF",
"x. c #D6F3FF",
"c. c #D7F3FF",
"v. c #D8F2FE",
"b. c #D8F2FF",
"n. c #D9F2FF",
"m. c #DBF3FE",
"M. c #DAF2FF",
"N. c #DAF3FF",
"B. c #DBF3FF",
"V. c #DCF3FF",
"C. c #DDF3FF",
"Z. c #DEF3FF",
"A. c #DDF4FF",
"S. c #DEF4FF",
"D. c #DFF4FF",
"F. c #E0F4FF",
"G. c #E1F4FF",
"H. c #E1F5FF",
"J. c #E2F5FF",
"K. c #E3F5FF",
"L. c #E3F6FF",
"P. c #E4F5FF",
"I. c #E4F6FF",
"U. c #E5F6FF",
"Y. c #E6F6FF",
"T. c #E7F6FF",
"R. c #E7F7FF",
"E. c #E8F6FF",
"W. c #E8F7FF",
"Q. c #E9F7FF",
"!. c #EAF7FF",
"~. c #EBF7FF",
"^. c #ECF7FF",
"/. c #E9F8FF",
"(. c #EAF8FF",
"). c #EBF8FF",
"_. c #ECF8FF",
"`. c #EDF8FF",
"'. c #ECF9FF",
"]. c #EDF9FF",
"[. c #EEF8FF",
"{. c #EFF8FF",
"}. c #EFF9FF",
"|. c #F0F9FF",
" X c #F1F9FF",
".X c #F2F9FF",
"XX c #F3F9FF",
"oX c #F0FAFF",
"OX c #F1FAFF",
"+X c #F2FAFF",
"@X c #F3FAFF",
"#X c #F2FBFF",
"$X c #F3FBFF",
"%X c #F4FAFF",
"&X c #F5FAFF",
"*X c #F4FBFF",
"=X c #F6FAFF",
"-X c #F6FBFF",
";X c #F7FBFF",
":X c #F5FCFF",
">X c #F6FCFF",
",X c #F7FCFF",
"<X c #F7FDFF",
"1X c #F8FBFF",
"2X c #F8FCFF",
"3X c #F9FCFF",
"4X c #F9FDFF",
"5X c #FAFCFF",
"6X c #FAFDFF",
"7X c #FBFDFF",
"8X c #FCFDFF",
"9X c #FDFEFE",
"0X c #FCFEFF",
"qX c #FDFEFF",
"wX c #FDFFFF",
"eX c #FEFEFE",
"rX c #FEFEFF",
"tX c #FEFFFF",
"yX c white",
/* pixels */
"                                                                  0X,X!.B.B.                                                    ",
"                                                            0X0X0X0X0X0X#XP.d.d.d.                                              ",
"                                                        0X0X0X0X0X0X0X0X0X0X$XS.d.d.d.                                          ",
"                                                      0X0X0X0X0X0X0X0X0X0X0X0X2XL.d.d.B.                                        ",
"                                                    0X0X0X0X0X0X0X0X0X0X0X0X0X0X2XP.d.d.d.                                      ",
"                                                  0X0X0X0X0X0X0X0X0X0X0X0X0X0X0X2X=XP.d.d.d.                                    ",
"                                                0X0X0X0X0X0X0X0X0X0X0X0X0X0X0X0X0X=X=XP.d.d.B.                                  ",
"                                              2X0X0X0X0X0X0X0X0X0X0X0X0X0X0X0X0X0X=X=X#XL.d.d.d.                                ",
"                                            ).0X0X0X0X0X0X0X0X0X0X0X0X0X0X0X0X0X0X=X=X=X#XV.u.d.d.                              ",
"                                          B.,X0X0X0X0X0X0X0X0X0X0X0X0X0X0X0X0X0X,X!.!.).=X{.B.u.d.d.                            ",
"                                          L.2X0X0X0X0X0X0X0X0X0X0X0X0X0X0X0X0X0XB.d.d.d.^.=X!.d.d.d.                            ",
"                                        d.}.0X0X0X0X0X0X0X0X0X0X0X0X0X0X0X0X0X2XB.d.d.d.P.=X#XG.d.d.B.                          ",
"                                        V.0X0X0X0X0X0X0X0X0X0X0X0X0X0X0X0X0X0X2Xd.d.d.d.P.=X=X#XV.d.d.                          ",
"                                      B.!.0X0X0X0X0X0X0X0X0X0X0X0X0X0X0X0X0X0X2XB.d.d.d.!.=X#X=X!.d.d.d.                        ",
"                                    d.d.=X0X0X0X0X0X0X0X0X0X0X0X0X0X0X0X0X0X0X2Xd.d.d.d.P.=X=X=X#XL.d.d.d.                      ",
"                                    d.L.0X0X0X0X0X0X0X0X0X0X0X0X0X0X0X0X0X0X0X0XS.B.d.B.}.=X=X=X=X^.B.d.d.                      ",
"                                  d.d.).0X0X0X0X0X0X0X0X0X0X0X0X0X0X0X0X0X0X0X2X#X}.}.!.{.{.#X=X=X#XG.u.d.d.                    ",
"                                  d.B.2X0X0X0X0X0X0X0X0X0X0X0X0X0X0X0X0X0X0X0X5X=X=X^.B.B.d.B.=X=X=X#XB.d.d.                    ",
"                                  d.V.0X0X0X0X0X0X0X0X0X0X0X0X0X0X0X0X0X0X0X2X=X=X=X!.d.u.d.d.^.=X=X=XG.d.d.                    ",
"                                B.d.!.0X0X0X0X0X0X0X0X0X0X0X0X0X0X0X0X0X0X0X5X=X#X=XP.d.d.d.B.{.=X=X=X{.B.d.d.                  ",
"                                d.B.2X0X0X0X0X0X0X0X0X0X0X0X0X0X0X0X0X0X0X0X5X=X=X=XP.d.d.d.B.{.=X#X=X=XG.u.d.                  ",
"                              d.d.S.0X0X0X0X0X0X0X0X0X0X0X0X0X0X0X0X0X0X0X5X=X=X=X=XP.d.d.d.d.{.=X=X=X=X^.B.d.d.                ",
"                              d.i.L.0X0X0X0X0X0X0X0X0X0X0X0X0X0X0X0X0X0X8X=X=X=X=X=X^.d.u.d.V.{.=X=X=X=X#XV.d.d.                ",
"                              d.d.).0X0X0X0X0X0X0X0X0X0X0X0X0X0X0X0X0X0X5X#X=X#X=X=X#X^.!.^.^.#X#X=X#XXX=X!.B.u.d.              ",
"                            d.d.B.#X0X0X0X0X0X0X0X0X0X0X0X0X0X0X0X0X0X0X=X=X=X#XXX=X=X=X=X=X=X=X#X=X=X=X=X#XV.d.d.              ",
"                            d.d.B.#X0X0X0X0X0X0X0X0X0X0X0X0X0X0X0X0X2X=X=X=X=X=X#X=X=X=XXX#X=X=XXX=X=XXX=X=XL.u.d.              ",
"                          B.d.d.P.=X5X0X0X0X0X0X0X0X0X0X0X0X0X0X0X0X5X=X=X#X=X#X=X=X#X=X=X=X=X=X=X=X=X#X#XXX^.B.d.d.            ",
"                          d.d.d.!.=X=X0X0X0X0X0X0X0X0X0X0X0X0X0X0X2X=X=X=X=X=X=X=X=XXX=X=X=X#XXX=X=X=X=X=X=X{.V.d.B.            ",
"                  d.V.#X0X#X#X#X2X2X5X5X0X0X0X0X0X0X0X0X0X0X0X0X=X=X=X=X=X=X=X#X=X#XXX=X=X=X#X=X=X=X=X=X=X=X=XG.d.d.            ",
"                d.d.d.B.#X0X0X0X0X0X0X2X2X0X0X0X0X0X0X0X0X0X,X=X=XXX#X=X#X=X=X=X=X=X=X=X=X=XXX=X#XXX=X=X=XXX=X!.d.d.            ",
"              d.d.d.d.i.B.,X0X0X0X0X0X0X2X2X0X0X0X0X0X0X0X=X=X=X=X=X=X=X=X=X=X#X=X=X=X=X=X#X=X=X=X=X#XXX=X#X=X#XB.d.d.          ",
"            d.d.d.d.d.d.d.L.0X0X0X0X0X0X2X=X=X5X2X5X2X5X=X=X=X=X#X=XXX#X=X=X=XXXXX#X=X=X=XXX=XXX#X=X=X=X=X=X#X=XV.d.d.          ",
"            d.d.d.d.d.d.d.d.$X0X0X0X0X0X0X=X#X=XXX#X=X=X=X=X=XXX=X=X=X=X=X=X=X=X=X=X=X=X=X=X=X=X=XXX=X=X#XXX=X=XG.u.d.          ",
"          d.d.d.d.d.d.d.d.i.L.0X0X0X0X0X0X2X=X=X=X=X=X=X#X=X=X#X#X=X=X=X#XXX=X=X=X=X#XXX=X=X=XXX=X#X=X=X=X=X=X=X!.d.d.u.        ",
"          d.d.d.d.d.d.d.d.d.B.,X0X0X0X0X0X0X=X=X=X=X#XXXXX=X=X=XXX=X=XXX=X=X#XXX#XXX=X=X#X=X=X#X=X=X=X#X=X=X=X=X^.j.u.B.        ",
"        d.d.i.u.$.$.8.d.d.d.d.).0X0X0X0X0X0X2X=X=X=X=X=X=X=X=X=X=X=X=X#X#X=X=X=X=X=X=XXXXX=X=X=X=X=X=XXX=XXX#X=X#XB.d.d.        ",
"        d.d.u.] L L ` 8.d.d.d.S.0X0X0X0X0X0X0X=X#X=X=X=X=X=X=X=X=X=X=XXXXX=X=X=X=X=X=X#X#X=X=X=X#XXX#XXX=X=X=X=X#XV.d.d.        ",
"        d.d.$.H L L H ..d.d.d.d.2X0X0X0X0X0X0X5XXX=X#X=X=X=X#XXX#X=X=X#X=X=XXX#XXX#X=X=XXX=X=XXX=X=X=X=X=X=XXX#X=XS.d.d.d.      ",
"      d.d.8.~ L L L L T 4.d.d.d.}.0X0X0X0X0X0X5X#X=XXX=X#XXX=X=XXX=X=X=XXX#X=X=X=X=XXX#X=X=X=X#X=X#XXX=X=X=X=X=X=XG.d.d.d.      ",
"      d.d.$.L L L L L L ..d.d.d.L.0X0X0X0X0X0X5XXX=X=X=X=X=X=XXX=X=X=X=X=X=X=X=X=X=X=X=X=X=X=X=X=X=X=X=X#XXX=X=X=XL.d.d.d.      ",
"      d.u.` L L L L L L A ;.d.d.V.2X0X0X0X0X0X2X=X=X=X=X=X#X=X#X=XXX=X=X#X=X=X=X=X#XXX=X=X=X#X=X#X=X=X=X=X=XXX#X=XG.d.d.d.      ",
"      d.>.T L L L L L L a V x.d.d.}.,X=X5X=X=X#X^.=X#X=X=XXX=X=X=X#X{.G.L.V.G.#X=X=X=X=X=X=XXX=XXX=X=XXX=X=X=X=X=XP.d.d.d.      ",
"    d.d.$.L L L L L L D 9 d d.d.d.P.=X=X=X=X=X=X!.=X=X#X=X=X#X=X=X=X^.d.d.d.d.}.=X=X=X=XXX=X=X=X=X=X=X#X#XXX=X=X=XG.d.d.d.d.    ",
"    d.d.] L L L L L T M - e 1.d.d.L.=X=X=X#X=X=XP.#X=X=X=X=XXX=X=X=X!.d.d.d.d.^.=X=XXX#X#X=X=X=X=X=X=X=X=X=X=X=X=XL.i.d.d.d.    ",
"    d.9.^ L L L L L T l + > O.d.u.V.=X#X#X=X#X=X!.^.=X=X=X=XXX#X=X=X!.d.d.d.B.!.=X#X=X=X#XXX#XXX=X=X=X=X=X=X=XXX=XL.d.d.d.d.    ",
"    d.>.T L L L L L L i . + B B.d.B.{.=X=X=X=X=X^.!.=X=X=X=X=X=X=X=X!.d.d.d.d.^.=XXX=X=X=X=X=X=X#XXX=X=X=XXX=X#X#XV.d.d.d.d.    ",
"    d.=.L L L L L L H w . O v d.d.d.^.=X=X=X#X=X^.P.=X=X#XXX=X=X=X=X!.d.d.d.d.^.=X=X=X=X=X#XXX=X=X=X#XXX=X#X=X=X{.V.d.d.d.d.    ",
"  d.d...L L L L L L A 4 + . y u.d.d.!.=X=X#X=X=X#XG.{.=X=X=X=X=X#X=X{.P.V.G.P.#X=X=X#XXX=X=X=X=X#X=X=X=X=X=X#X=X^.B.d.d.d.d.    ",
"  d.d.' L L L L L L m - + O 0 4.d.d.R.=X=X#X=X=X#XG.#X=X=X=X=XXX#XP.!.P.^.#XP.!.!.^.=X=X=X=X=XXXXX=X=X=X=X=X#X=X!.u.d.d.d.d.    ",
"  d.u.^ L L L L L T x + + + 4 +.d.d.L.=X=X=X#X=X=XG.!.=X=XXX=X#XP.i.d.d.V.P.d.d.u.V.#X=X#X=X=X#X=X=XXX#X=X#X=X#XG.u.d.d.d.d.d.  ",
"  d.4.~ L L L L L T h O + + & U x.d.V.=X=X=X=X=X=XP.P.=X=X#X=XXXG.d.d.d.V.V.d.d.d.B.XX=XXX=X=X=XXX#X=X=X=X=X=X^.B.d.d.d.d.d.d.  ",
"  d.>.L L L L L L L u O + + O B d.d.V.{.#X=X#X=X=X!.G.=X=X=X=X#XL.i.d.d.B.G.d.d.d.B.{.=X=X=X=X=X=X=X=X=X=X=X=XP.d.d.d.d.d.d.d.  ",
"  d.:.T T L L L L G r X + + . b d.d.B.#X#X=X#X=X=X!.G.=X=X=X=X=XV.d.d.d.V.V.d.d.d.B.#X=X=X=X=X=X=X=X=X=X=X=X{.B.d.d.d.d.d.d.d.  ",
"  d.$.L L L L L L G 0 O + + . j d.d.B.}.=X=X=X=X=X^.V.XX=X=X=X=XG.d.d.i.V.V.d.d.d.B.{.=X=X=X#XXX=X=X=XXXXX#XL.d.d.d.d.d.d.d.d.  ",
"  d.@.L L L L L L A 5 O + + . p u.d.d.^.=X=X=X=X=X{.V.#X=X=X=X=X!.B.B.B.G.!.B.B.B.P.=X=X#XXX#X=X#X=X=X#X=X!.u.d.d.d.d.d.d.d.d.  ",
"d.d...D L L L L L C 4 O + + O t 9.d.B.!.=X#X=X=X=X#XV.^.#X=X#XXX#X{.#X}.=X=X{.{.{.#X=X=X=X=X=X=XXX=X=X=X^.B.d.d.d.d.d.d.d.d.d.  ",
"d.u.] H H T H T L C ; @ @ O X w 9.d.d.!.=X=X=X=X=X=XV.^.=X=X=X=XXX=X=X=X=X#XXX=X=X=X#X=X=X=X#X=X=X=X=X^.B.d.d.d.d.d.d.d.d.d.d.  ",
"d.u.] T T H T H P b $ @ O @ O 8 ;.x.d.V.!.P.P.P.P.P.B.^.=X#X=X=X=X=XXX#X=X=X=X=X=X#XXX=X#X=X=X=X=X=XP.B.u.d.d.d.d.d.d.d.d.d.d.d.",
"d.u.^ T H T H T P c $ @ + + X 5 -.d.d.d.d.d.d.d.d.d.d.V.!.#X=X=X=X=X=X=X=X=X=X=X=X=X=X=XXX=X=X=X!.S.d.d.d.d.d.d.d.d.d.d.d.d.d.d.",
"u.u.^ H T H T H P x @ @ + + O > +.x.d.d.d.d.d.d.d.d.d.d.u.V.P.#X#XXX=X=X=X=XXX#X=X#X=X=X=X{.!.V.d.d.d.d.d.d.d.d.d.d.d.d.d.d.d.B.",
"d.u.T Y H T H T L l + + + + + ; o.d.d.d.d.d.d.d.d.d.d.d.d.d.d.B.G.P.!.^.^.{.{.#X#X^.!.L.S.B.d.d.d.d.d.d.d.d.d.d.d.d.d.d.d.d.d.d.",
"d.4.T H T H T H L h + + + + + - ) d.d.d.d.d.d.d.d.d.d.d.d.d.d.d.d.d.d.B.B.B.j.B.d.d.d.d.d.d.d.d.d.d.d.d.d.d.d.d.d.d.d.d.d.d.d.d.",
"B.4.T T H T L T T s O O + O + $ I d.d.u.d.d.d.d.d.d.d.d.d.d.d.d.d.d.d.d.d.d.u.d.d.d.d.d.d.d.d.d.d.d.d.d.d.d.d.d.d.d.d.d.d.d.d.d.",
"d.4.T Y Y Y T T ~ g > > 4 > 4 4 I B.d.B.d.d.d.d.d.B.d.d.d.d.d.d.d.d.d.d.d.d.d.d.d.d.d.d.d.d.d.d.d.d.d.d.d.d.d.d.d.d.d.d.d.d.d.d."
};
