/* XPM */
static char *_a794990e5f548f38f3743241f4fc5577n18zq7lFrXk56ff[] = {
/* columns rows colors chars-per-pixel */
"64 64 42 1 ",
"  c #573217",
". c #563117",
"X c #522F16",
"o c #553116",
"O c #4E2D15",
"+ c #412511",
"@ c #492A13",
"# c #563217",
"$ c #533016",
"% c #512E15",
"& c #4F2D15",
"* c #532F16",
"= c #543016",
"- c #472913",
"; c #402511",
": c #402411",
"> c #422612",
", c #4D2C14",
"< c #4B2B14",
"1 c #3F2411",
"2 c #422511",
"3 c #462812",
"4 c #452712",
"5 c #452812",
"6 c #442712",
"7 c #482913",
"8 c #553016",
"9 c #432612",
"0 c #4E2C14",
"q c #472813",
"w c #502E15",
"e c #502D15",
"r c #462813",
"t c #4D2C15",
"y c #4A2A14",
"u c #4A2A13",
"i c #4F2E15",
"p c #543116",
"a c #512F15",
"s c #4C2B14",
"d c #553117",
"f c white",
/* pixels */
"                                                                ",
"                                                                ",
"                                                            .Xo ",
"                                                            O+@#",
"                                                            O+@#",
"                                                            #$o ",
"                                                                ",
"                                                                ",
"             .%&*                                               ",
"            =-;:>,                                              ",
"            <11112X                                             ",
"           .311111,                                             ",
"           .-1111:&                                             ",
"            &;1114=                                             ",
"            #O567$                                              ",
"              .o#                                               ",
"                                                                ",
"                                                      8$o       ",
"                                                    o<9+60#     ",
"                                                    <1111;O     ",
"                                                   =9111113.    ",
"                                                   *+111116o    ",
"                                                   o911111q.    ",
"                                                    ,:111+w     ",
"                                                    .0493e      ",
"                                                      .o.       ",
"                                                                ",
"                   #.                                           ",
"                  X7r,.                                         ",
"                 8611:t                                         ",
"                 %;1117#                                        ",
"                 *>111y                                         ",
"                  ,>+r=                                         ",
"                   =X.                                          ",
"                                                                ",
"                                                                ",
"                                                                ",
"                                                                ",
"                                                                ",
"                                                                ",
"                                                                ",
"                                                                ",
"                                             .w<y,=             ",
"                                            o@;1119w            ",
"                                            u111111>X           ",
"                                           $>1111111y           ",
"                                           i;1111111r.          ",
"                                           w;1111111r.          ",
"                                           $>1111111<           ",
"                                            <1111119*           ",
"                                            ou+1116w            ",
"    p,,=                                     #as<O=             ",
"   .-113o                                                       ",
"   X+11;w                                                       ",
"   =911>X                                                       ",
"    &46O                                                        ",
"     dd                                                         ",
"                                                                ",
"                                                                ",
"                                                                ",
"                                                                ",
"                                                                ",
"                                                                ",
"                                                                "
};
