/* XPM */
static char *_fc1415ba7414293d184703b2c3e0616KRUVoYeFee75i1hs[] = {
/* columns rows colors chars-per-pixel */
"64 64 156 2 ",
"   c None",
".  c #020202",
"X  c #0B0B0C",
"o  c #0E1113",
"O  c #141618",
"+  c #16181A",
"@  c #181818",
"#  c gray13",
"$  c #282727",
"%  c #222628",
"&  c #292B2B",
"*  c #24282B",
"=  c #2B2F32",
"-  c gray23",
";  c gray21",
":  c #3B444A",
">  c #3E4A53",
",  c #434343",
"<  c #434A4F",
"1  c #554D4B",
"2  c #444D52",
"3  c #4A565E",
"4  c #555555",
"5  c #5C5D5D",
"6  c #4C5962",
"7  c #5D6F7D",
"8  c gray38",
"9  c #6E6E6E",
"0  c #626C73",
"q  c #6C787F",
"w  c #737373",
"e  c #B74A26",
"r  c #B35130",
"t  c #C34C24",
"y  c #CA4E24",
"u  c #CC5027",
"i  c #C7512A",
"p  c #D25227",
"a  c #D35429",
"s  c #D9562A",
"d  c #DE592C",
"f  c #CF5830",
"g  c #C75F3C",
"h  c #E05729",
"j  c #E45A2B",
"k  c #E05F33",
"l  c #EB5F31",
"z  c #DD653D",
"x  c #F16739",
"c  c #BF6A51",
"v  c #C06448",
"b  c #C46343",
"n  c #C67054",
"m  c #D97A5E",
"M  c #E76B41",
"N  c #D28368",
"B  c #CD8E7A",
"V  c #D28870",
"C  c #EC8563",
"Z  c #F09C7F",
"A  c #5F7281",
"S  c #747F85",
"D  c #7A888F",
"F  c #708596",
"G  c #708698",
"H  c #798B98",
"J  c #7F92A0",
"K  c gray55",
"L  c #808B90",
"P  c #83919A",
"I  c #949494",
"U  c #9F9F9F",
"Y  c #93979A",
"T  c #929BA1",
"R  c #92A2AB",
"E  c #9DAEB8",
"W  c #99AAB3",
"Q  c #AEAEAE",
"!  c #BFAFA9",
"~  c #AEB5B9",
"^  c #B4B7B8",
"/  c gray",
"(  c #B1B1B1",
")  c #CEA297",
"_  c #C7B1AF",
"`  c #D6B2AD",
"'  c #D2B6B0",
"]  c #E7B7A7",
"[  c #FEBCA6",
"{  c #E0BBB1",
"}  c #FEC7B5",
"|  c #95B2C8",
" . c #9FBED7",
".. c #A5B7C1",
"X. c #ABBEC9",
"o. c #A7BAC5",
"O. c #BDBFC0",
"+. c #FFBCDD",
"@. c #AEC2CD",
"#. c #B0C3CE",
"$. c #A7C1D3",
"%. c #B5CADA",
"&. c #ACCCE6",
"*. c #AFD1EC",
"=. c #B3D4ED",
"-. c #B9D7EE",
";. c #BDD9EF",
":. c #B6D6F0",
">. c #BCDBF2",
",. c #C4C4C4",
"<. c #C1CACF",
"1. c #CBCBCB",
"2. c #D8C6C4",
"3. c #CDCFD0",
"4. c #D4D4D4",
"5. c #D5DCDF",
"6. c #DCDCDC",
"7. c #FBD7CB",
"8. c #F4DCD4",
"9. c #F7E5DE",
"0. c #C3D9E5",
"q. c #C6DCE8",
"w. c #CCDDE7",
"e. c #DBDFE5",
"r. c #C3DEF2",
"t. c #C8DFF2",
"y. c #FFC6E3",
"u. c #FFCDE6",
"i. c #F2CEEA",
"p. c #F9D7EC",
"a. c #DDE6EB",
"s. c #C4E1F5",
"d. c #CBE3F4",
"f. c #CAE6F9",
"g. c #CEE9FA",
"h. c #D3E6F5",
"j. c #D3E8F5",
"k. c #DAEAF6",
"l. c #D4EDFC",
"z. c #DCEEF9",
"x. c #D7F0FE",
"c. c #D9F1FF",
"v. c #E4E4E4",
"b. c #E6E9EC",
"n. c #EEEEEE",
"m. c #E2EEF8",
"M. c #FFE1F2",
"N. c #FBEBF3",
"B. c #E4F4FE",
"V. c #EAF6FD",
"C. c #EDF9FF",
"Z. c #F5F5F5",
"A. c #F1F7FC",
"S. c #FFF6FB",
"D. c #F4FBFF",
"F. c #FFFFFF",
/* pixels */
"                                                          F.F.F.F.F.F.F.                                                        ",
"                                                    F.F.F.F.F.F.F.F.F.F.F.F.F.                                                  ",
"                                                F.F.F.F.F.F.F.F.F.F.F.F.F.F.F.F.F.                                              ",
"                                              F.F.F.F.F.F.F.F.F.F.F.F.F.F.F.F.F.F.F.                                            ",
"                                            F.F.F.F.F.F.F.F.F.F.F.F.F.F.F.F.F.F.F.F.F.                                          ",
"                                          F.F.F.F.F.F.F.F.F.F.F.F.F.F.F.F.F.F.F.F.F.F.F.                                        ",
"                                        F.F.F.F.F.F.F.F.F.F.F.F.F.F.F.F.F.F.F.S.Q K a.F.F.                                      ",
"                                        F.F.F.F.F.F.F.F.F.n.Q 1.F.F.F.F.F.F.F.v./ $ 5 S.F.                                      ",
"                                      F.F.F.F.F.F.F.F.F.F.4.w # ,.F.F.F.F.F.Z.1.Z., @ 6.F.h.                                    ",
"                                      F.F.F.F.F.F.F.F.F.v.v.1.. 9 F.F.F.F.F.F.w 4 - 5 6.F.f.                                    ",
"                                      F.F.F.F.F.F.F.F.F.4.9 8 ; w F.F.F.F.F.F.U . 1 _ 8.7.` m h s a u u                         ",
"                                      F.F.F.F.F.F.F.F.F.n.- . K ,.D.c.b.7.} [ Z r e z z k s p u y t                             ",
"                                      F.F.F.F.F.F.F.F.F.F.,.4 K Z.D.v.C x l j j j s p u i c c                                   ",
"                                      F.F.F.F.F.F.F.S.u.+.y.N.F.D.V.' d s s p u t i g B _ #.                                    ",
"                                      F.F.F.F.F.F.F.F.M.i.p.S.D.c.c.2.f y t e g V ' a.0.3 G                                     ",
"                                      F.F.F.F.D.D.F.F.5.j.D.F.C.c.c.z.) n N ] 9.A.c.j.%.> F                                     ",
"                                      m.F.F.F.c.B.F.4.& Y b.~ q.c.c.c.c.k.B.F.F.C.X.: 6  .=.                                    ",
"                                      ;.m.F.F.V.B.F.n.I 1.9 . 0 x.W q o.x.d.Y D %.D . o | >.                                    ",
"                                        ;.B.C.c.c.B.D.D.D.D * P @.O . & q.R . . 2 $.7 G &.                                      ",
"                                        =.=.f.x.c.c.c.c.x.x.w.x.#.+ . = q.R X . > &.:.=.=.                                      ",
"                                          =.=.>.g.c.c.c.c.c.c.c.x.E D o.c.d.J A | =.*.=.                                        ",
"                                            r.*.=.>.f.l.x.x.c.c.c.c.x.x.f.-.=.=.=.*.;.d.                                        ",
"                                          F.A.t.=.*.=.:.>.>.r.s.s.>.-.*.*.*.*.*.*.t.A.h.                                        ",
"                                          F.F.F.k.=.*.*.*.*.*.*.*.*.*.*.*.*.*.-.k.F.F.k.=.                                      ",
"                                        F.F.F.F.F.A.h.;.=.*.*.*.*.*.=.&.=.;.j.A.F.D.C.l.*.                                      ",
"                                        F.F.D.F.F.F.F.D.V.k.t.t.r.t.d.j.V.A.F.D.D.D.x.f.=.=.                                    ",
"                                        D.F.C.D.F.F.F.F.F.F.F.F.F.F.F.F.F.F.F.D.F.D.c.s.*.=.                                    ",
"                                        k.D.D.F.F.F.F.F.F.F.F.F.F.F.F.F.n.Z.F.C.B.B.c.s.*.=.                                    ",
"                                        >.l.c.C.V.F.F.F.F.F.F.F.F.F.F.3.- 4 b.c.x.c.c.>.*.=.                                    ",
"                                        =.f.c.c.x.B.F.F.F.F.F.F.F.F.F.^ X $ 5.c.c.c.l.=.*.=.                                    ",
"                                        *.=.l.c.c.B.F.F.F.F.F.F.F.F.F.Z./ %.C.c.c.x.r.*.*.=.                                    ",
"                                        =.*.r.l.c.B.F.D.F.F.F.F.F.F.V.B.a.~ d.c.c.g.=.*.*.=.                                    ",
"                                      F.V.t.=.>.l.B.D.c.D.F.F.F.F.F.c.j.2 . D c.l.:.*.*.*.                                      ",
"                                    F.F.F.D.z.q.r.m.F.D.F.F.F.F.F.F.C.k.0 % R x.:.*.*.*.=.                                      ",
"                                    F.F.F.F.F.D.B.k.k.C.F.F.F.F.F.F.B.c.j.0.s.=.*.*.=.q.C.                                      ",
"                                  F.F.F.F.F.F.F.F.F.F.F.F.F.F.F.F.F.B.l.g.>.*.*.:.t.m.F.F.F.F.                                  ",
"                                  F.F.F.F.F.F.F.F.F.F.F.F.F.F.F.F.F.k.d.>.q.f.z.C.F.F.F.F.F.F.F.                                ",
"                                F.F.F.F.F.F.F.F.F.F.F.F.F.F.F.F.F.D.D.A.D.F.F.F.F.F.F.F.F.F.F.F.F.                              ",
"                              F.F.F.F.F.F.F.F.F.F.F.F.F.F.F.F.F.F.F.F.F.F.F.F.F.F.F.F.F.F.F.F.F.F.D.                            ",
"                            F.F.F.F.F.F.F.F.F.F.F.F.F.F.F.F.F.F.F.F.F.F.F.F.F.F.F.F.F.F.F.F.F.F.F.F.z.                          ",
"                          V.F.B.C.F.F.F.F.F.F.F.F.F.F.F.F.F.F.F.F.F.F.F.F.F.F.F.F.F.F.F.F.F.F.F.F.F.A.q.                        ",
"                        ;.c.F.F.F.F.F.F.F.F.F.F.F.F.F.F.F.F.F.F.F.F.F.F.F.F.F.F.F.F.F.F.F.F.F.F.F.F.F.h.=.                      ",
"                        r.c.D.F.B.C.F.F.F.F.F.F.F.F.F.F.F.F.F.F.F.F.F.F.F.F.F.F.F.F.F.F.F.F.F.F.F.F.F.A.-.                      ",
"                      =.f.c.C.D.c.B.F.F.F.F.F.F.F.F.F.F.F.F.F.F.F.F.F.F.F.F.F.F.F.F.F.F.F.F.F.F.F.F.F.F.t.=.                    ",
"                      =.l.c.D.F.D.F.F.F.F.F.F.F.F.F.F.F.F.F.F.F.F.F.F.F.F.F.F.F.F.F.F.F.F.F.F.F.F.F.F.F.k.*.                    ",
"                    =.=.l.c.D.F.F.F.F.F.F.F.D.F.F.F.F.F.F.F.F.F.F.F.F.F.F.F.F.F.F.F.F.F.F.F.F.F.F.F.F.F.V.=.=.                  ",
"                    =.=.l.c.B.F.F.F.F.F.F.D.c.C.F.F.F.F.F.F.F.F.F.F.F.F.F.F.F.F.F.F.F.F.F.F.F.F.F.F.F.F.A.-.=.                  ",
"                    =.:.x.c.c.D.F.B.B.F.F.F.D.F.F.F.F.F.F.F.F.F.F.F.F.F.F.F.F.F.F.F.F.F.F.F.F.F.F.D.D.F.F.;.=.                  ",
"                  =.*.=.l.c.c.D.D.c.c.D.F.F.F.D.F.F.F.F.F.F.F.F.F.F.F.F.F.F.F.F.F.F.F.F.F.F.F.F.F.B.c.B.C.;.=.                  ",
"                  =.*.=.l.c.c.D.F.D.F.F.F.D.c.c.B.F.F.F.F.F.F.F.F.F.F.F.F.F.F.F.F.F.F.F.F.F.F.F.D.c.c.c.c.>.*.=.                ",
"                  =.=.*.f.c.c.B.B.V.D.D.C.c.c.c.c.D.F.F.F.C.D.F.F.F.F.F.F.F.F.F.F.F.F.F.F.F.F.F.F.C.c.c.l.:.*.=.                ",
"                  =.=.*.>.c.c.c.x.x.c.c.c.c.c.c.c.c.B.F.F.B.c.F.F.F.F.F.F.F.F.F.F.F.F.F.F.F.F.F.F.F.c.c.l.=.*.=.                ",
"                  =.*.*.:.l.c.x.c.c.c.c.c.x.c.c.c.c.c.B.D.D.D.F.F.F.F.F.F.F.F.F.F.F.F.F.F.F.F.F.F.F.B.x.f.*.*.=.                ",
"                  =.*.*.=.>.x.c.c.x.x.c.c.c.c.x.c.c.c.c.B.F.D.F.F.F.F.F.F.F.F.F.F.F.F.F.F.F.F.F.F.F.D.l.>.*.*.=.                ",
"                  :.*.*.*.*.f.c.c.c.c.c.c.c.c.c.c.c.c.c.c.B.c.c.V.F.F.F.F.F.F.F.F.F.F.F.F.F.F.F.D.F.F.B.=.*.*.=.                ",
"                c.l.s.>.=.=.=.f.c.c.x.c.c.x.c.c.c.c.c.c.c.c.c.c.c.D.F.F.F.F.F.F.D.V.D.F.F.F.F.C.c.D.F.d.*.=.*.:.                ",
"            c.c.c.c.x.x.l.g.g.g.x.c.c.x.c.c.c.x.c.x.c.c.c.c.c.c.x.C.F.F.F.F.F.F.C.x.c.F.F.F.F.D.B.C.j.*.*.*.*.                  ",
"          c.c.c.c.c.c.c.c.c.c.c.x.c.c.c.c.c.c.c.c.c.c.x.c.x.c.c.B.F.F.F.F.F.F.F.D.B.C.F.F.F.F.D.B.f.=.=.=.>.r.                  ",
"          c.x.c.x.c.c.c.c.c.c.c.c.c.c.c.x.c.c.c.c.c.c.c.c.B.C.D.F.F.F.F.F.F.F.F.F.F.F.F.F.D.D.c.l.g.g.g.l.l.c.c.                ",
"        c.c.c.c.c.c.x.c.c.c.x.c.c.x.c.c.c.c.c.x.c.x.c.c.x.B.D.F.F.F.F.F.F.C.C.V.D.F.C.c.c.c.c.c.c.c.c.c.c.c.x.c.c.              ",
"    c.c.c.c.c.c.c.c.x.c.x.c.c.x.x.c.c.x.c.x.c.c.c.x.c.c.c.c.B.F.F.F.F.F.V.c.c.c.c.B.c.c.c.c.c.c.c.c.c.c.c.c.x.c.c.c.c.B.c.      ",
"  c.c.c.c.c.x.c.x.c.c.c.c.c.c.c.c.c.c.c.c.c.c.c.c.c.c.c.c.c.c.C.F.F.F.D.c.c.c.c.x.c.c.c.c.c.x.c.c.c.c.x.c.c.c.c.c.c.c.c.c.c.c.  ",
"c.c.c.c.c.c.c.c.c.c.c.c.c.c.c.c.c.c.c.c.c.c.c.c.c.c.x.c.c.c.c.c.B.V.B.B.c.c.c.c.c.z.c.c.x.c.c.c.c.c.c.c.c.c.c.c.c.c.c.c.c.c.c.c.",
"c.c.c.c.c.c.c.c.c.c.c.c.c.c.c.c.c.c.c.c.c.c.c.c.c.c.c.c.c.c.c.c.c.c.c.c.c.c.c.c.c.c.c.c.c.c.c.c.c.c.c.c.c.z.c.c.c.c.c.c.c.c.c.c."
};
