/* XPM */
static char *_9c6386baa05400dc0096ee3a84bae2dJwuKivsR070Z0l2k[] = {
/* columns rows colors chars-per-pixel */
"64 64 141 2 ",
"   c None",
".  c #000000",
"X  c #0A0603",
"o  c #0D0805",
"O  c #130C07",
"+  c #160E08",
"@  c #180F08",
"#  c #1C120A",
"$  c #22160C",
"%  c #26190D",
"&  c #2A1B0F",
"*  c #2D1D10",
"=  c #352213",
"-  c #3B2412",
";  c #3F2816",
":  c #402714",
">  c #442A16",
",  c #462D19",
"<  c #4A2E19",
"1  c #4E301A",
"2  c #53341D",
"3  c #58371F",
"4  c #59381F",
"5  c #5D3A21",
"6  c #613D23",
"7  c #664125",
"8  c #694227",
"9  c #6D4428",
"0  c #704727",
"q  c #70462A",
"w  c #754A2B",
"e  c #7A4D2E",
"r  c #7E502D",
"t  c #82532F",
"y  c #845431",
"u  c #885632",
"i  c #8D5933",
"p  c #945F37",
"a  c #925E35",
"s  c #966035",
"d  c #956037",
"f  c #976136",
"g  c #966036",
"h  c #996137",
"j  c #986236",
"k  c #996237",
"l  c #9A6237",
"z  c #9A6337",
"x  c #9B6337",
"c  c #996237",
"v  c #9A6238",
"b  c #9B6238",
"n  c #9B6338",
"m  c #9C6338",
"M  c #9C6438",
"N  c #9D6438",
"B  c #9D6538",
"V  c #9C6439",
"C  c #9E6538",
"Z  c #9E6539",
"A  c #9E6638",
"S  c #9F6639",
"D  c #9F663A",
"F  c #9D6438",
"G  c #A06639",
"H  c #A06739",
"J  c #A16739",
"K  c #A0663A",
"L  c #A1673A",
"P  c #A0673A",
"I  c #A2683A",
"U  c #A3693A",
"Y  c #A3693B",
"T  c #A4693A",
"R  c #A4693B",
"E  c #A5693B",
"W  c #A56A3B",
"Q  c #A66B3B",
"!  c #A76B3B",
"~  c #A66B3C",
"^  c #A76B3C",
"/  c #A76C3C",
"(  c #A76C3F",
")  c #A3693B",
"_  c #A86B3B",
"`  c #A86B3C",
"'  c #A86C3C",
"]  c #A96C3C",
"[  c #A96D3C",
"{  c #AA6D3C",
"}  c #AA6D3D",
"|  c #AB6E3D",
" . c #AC6E3D",
".. c #AC6F3D",
"X. c #AD6F3D",
"o. c #AD6F3E",
"O. c #AA6D3D",
"+. c #AD703E",
"@. c #AE703E",
"#. c #AF703E",
"$. c #AF713E",
"%. c #AF703F",
"&. c #AF713F",
"*. c #AE703E",
"=. c #B0713F",
"-. c #B1723F",
";. c #B0723F",
":. c #A86D40",
">. c #A86D40",
",. c #AD7041",
"<. c #AF7140",
"1. c #AE7142",
"2. c #AF7142",
"3. c #AE7142",
"4. c #B17240",
"5. c #B27240",
"6. c #B27340",
"7. c #B27341",
"8. c #B47442",
"9. c #B67643",
"0. c #B67644",
"q. c #B77644",
"w. c #B67744",
"e. c #B77744",
"r. c #B67745",
"t. c #B77745",
"y. c #B77746",
"u. c #B67644",
"i. c #B87745",
"p. c #B87746",
"a. c #B87845",
"s. c #B97846",
"d. c #B97946",
"f. c #BA7946",
"g. c #BA7A47",
"h. c #BA7946",
"j. c #BA7A48",
"k. c #BB7A48",
"l. c #BC7B48",
"z. c #BC7B49",
"x. c #BB7A48",
/* pixels */
"                                                                                                                                ",
"e w M 7.g.l.k.k.k.k.g.l.k.k.k.k.g.g.l.l.k.l.l.l.k.k.k.k.g.g.l.k.k.k.k.g.k.k.k.k.l.l.l.k.k.k.l.l.k.k.k.k.k.k.k.k.k.k.g.g.6.L e e ",
"_ u q M -.-.-.-.7.<.7.-.-.-.6.6.-.-.-.-.6.6.6.6.6.6.6.6.%.-.-.-.6.-.-.-.6.6.6.6.5.5.6.6.6.6.6.6.6.6.6.6.<.7.%.6.6.-.-.7.M w t ! ",
"8.-.u q x %.%.+.t - 8 +.%.%.%.%.+.%.%.+.X.X.X.<.X.<.X.X.%.%.%.+.%.%.%.%.X.%.X.X.X.#.X.#.X.<.X.X.X.#.-.>.,.0 - r %.%.%.M w t L ! ",
"w.g.%.t q M %.+., . $ M %.+.+.+.%.%.+.+.+.%.%.%.X.<.X.<.X.%.+.%.>.X.X.X.X.X.>.-.#.X.#.X.X.#.#.#.#.X.X.<.E * . - X.X.L w t | L x ",
"w.g.%.| u w x $.e * 5 | %.%.+.+.%.| %.+.%.+.%.%.#.X.X.X.%.%.%.%.-.X.6.X.6.X.X.-.#.#.X.#.<.#. .#.X.#.X.X.X.6 & q %.L w t | X.L m ",
"w.k.%.-.+.u q x +.H ! | X._ { { | | | | _ +.| | X.| | | | | | | X.X.| | | | X.| #. .X.#. . .,. .X.| | | | E U X.L w t ` -.X.M M ",
"w.k.%.M s _ u w x M x x x x x x x x x x s x b b b b b x x s b x x x x p x b x x p G p p m p N p b b x x x x M L w t ! x x -.M L ",
"w.l.x - $ r X.u 9 e e w w w w w w e e e r e r r e e y e r r e r e e e t t e t t e e t e t e e w w w w w w w e q t | t $ = x U x ",
"w.l.a @ . 7 ` M w t i a a a a s u 8 3 < 1 < < < < , 1 1 < < < < < < < < , > < < < < < < < 2 6 u s i a a a a u 0 L 8.0 . O t U M ",
"w.g.+.0 5 M U x e M -.%.T +.-.-.k.p 6 5 6 6 6 6 6 5 6 q 6 6 6 6 6 6 6 6 5 5 9 6 6 6 6 6 6 6 i q.-.-.+.U _ -.U w ( g.L 6 9 / M M ",
"8.g.%.%.%.%.U x r x -.r = 4 { -.w.k.p 9 w e e e q 6 y i e e e r e e e e w 9 u u e e e w 6 i y.q.-.-.u - 2 T U e :.g.X.%.%.%.L M ",
"w.k.%.%.+.-.! s r x +.2 . @ M %.X.i.x.p q q e r w 9 y i e e e e e e e e w 9 u u e e r 6 p x.q.#.$.+.4 . @ g U w | g.{ -.%.+.M M ",
"w.k.%.%.+.+.U x e x -.u ; 6 _ +.#.#.i.x.p q w e w 6 y i e e e r e e e e w 9 u u e e 6 i y.y.#.#.+.-.i > 4 ! U w ( a.-.{ %.+.J M ",
"w.l.%.%.+.+.U x e x -.+._ +.%.+.<.#.>.y.j.p q q e 6 y i e e e e e e e e 9 9 u u e 6 p y.x.,.,.#.+.+.$.[ { -.U w | w.+.-.+.+.J M ",
"7.l.$.+.+.%.U j e x { +.+.+.-.+.<.<.<.>.y.j.p q q 6 y i e e e e e e e e w 6 u y 6 a x.y.2.,.#.#.+.%.+.%.%.( b w :.k.+.+.-.%.H M ",
"w.j.%.%.%.+.U x e a N ` #.#.X.#.X.<.X.#.#.i.k.p 8 7 y i e e e e e e e e q 9 y q u g.w.%.>.X.X.#.+.+.+.+._ p p e  .q.X.<.X.<.L m ",
"w.j.%.%.+.%.U x w w p N ` #.<.X.#.X.<.X.X.<.w.k.d 8 r i e e e e e e e e q 7 9 i i.w.%.%.-.X.6.X.+.+.-._ G p e 0 #.i.#.X.#.X.L m ",
"w.k.<.%.%.%.U M q 3 w p N ` #.#.X.#.X.#.#.X.X.w.k.d q y e e e e e e e e q 6 u g.g.%.%.%.#.X.X.#.%.%._ x x e 2 9 <.x.X.<.-.X.M m ",
"w.k.%.%.+.X.! M w > < q p K ` X.<.X.<.X.X.<.X.X.w.k.d 9 w e e e e e e w 9 i w.g.%.%.%.X.X.-.#.X.%./ x x w 1 : 0 <.h.#.X.X.#.L M ",
"7.l.%.+.%.+.U x e 6 - < w p K >.+.+.+.+.6.>.-.-.+.8.g.a 9 w e e e e e 9 i w.i.%.%.+.%.+.#.X.#.#./ x x w 1 - 5 w -.g.-.{ X.%.M M ",
"w.l.%.%.+.%.! x e w 6 - 1 w p p _ +.+.%.X.X.X.X.%.+.w.k.d 9 w e e e 9 i i.a.%.%.%.%.+.+.#.#.X._ x x e 2 - 5 e w >.g.{ -.%.%.L M ",
"w.j.%.+.%.X.U b e w e 6 : < w p M ! | %.%.%.-.X.+.%.+.r.k.d 9 w e 9 i y.q.-.+.+.-.+.+.+.#.#._ G s e 2 - 5 w e w 6.i.+.+.%.%.L M ",
"w.j.%.%.%.X.! b w w e w 6 - < w x x ! %.%.%.%.X.%.+.%.+.r.j.d 9 8 i y.y.-.{ -.-.{ +.+.+.#._ m p w 1 - 4 e e w w <.g.+.+.%.X.H M ",
"w.k.%.%.+.%.U x e w e e e 5 = 1 q x M ! X.>.-.-.X.%.%.%.%.8.w.a i y.g.%.X.%.%.+.#. .#. .` p p e 1 = 6 y e e e w 3.x.X.-.X.X.L m ",
"w.k.%.%.%.%.U x w w e e e 6 6 : < q x M E X.#.X.X.%.%.%.%.%.%.| y.j.%.%.%.%.+.+.#.#.#.` m m e < - 5 i y e e e w >.i.#.#.X.<.L M ",
"7.l.%.%.%.%.! m e w e e w 6 y q - < q x m ! X.#.+.+.%.+.%.X.| g.y.6.<.X.{ -.+.+.#.#.` N m e 1 - 5 6 i y e e w w 7.x.X.#.X.X.M M ",
"w.l.%.%.%.X.L b e w e e w 6 t i 6 - < q x m _ #.+.+.+.+.X.| g.w.3.>.>.-.-.+.+.+.#.` N p w 1 - 6 9 q i y e e e w 3.x.X.>.%.-.L M ",
"w.j.%.%.%.+.U x e w e e e 8 r i e 6 ; < w x x _ +.-.-.X.| i.w.%.{ -.+.+.{ +.+.-.>.N p e 1 = 5 e q q i y e e w w %.g.-.{ %.%.M M ",
"w.j.%.%.+.+.! x e w e e w 8 y i r e 6 - < q p x _ { #.>.k.i.%.%.-.+.+.+.-.%.{ _ m p t < - 5 e e 9 q i y e e e w <.a.%.-.%.%.L M ",
"w.k.%.%.+.+.! x e w e e w 9 y i e e e 6 - < w x H | X.i.i.<.%.%.+.+.+.+.%.%._ M p e 1 = 5 e e e 6 q i y e e w w <.i.-.{ +.%.M M ",
"w.k.%.%.+.+.! x w w e e w 6 y i e e e e 6 - < q x _ i.g.<.X.%.%.{ -.%.%.%._ x x e 1 - 5 e e e r w q i y e e e w <.g.+.+.+.%.U M ",
"i.h.<.#.#.#.E b e e e e e 6 y i e e e e e 6 > 6 a g.i.6.X.#.#. .-.{ %.%./ M L p 8 > 5 e e e e e 9 q i y e e e w 3.j.,.#.#.#.K p ",
"q.h.#.#. .#.E N e e e e e 6 e i e e e e e w 7 u w.i.<.X.#.X.#.#.%.-.%._ x M | 6.p 6 w w e e e e 9 q i y e e e w 3.j.,.2.#. .K K ",
"q.h.<. .#.#.E b e w e e e 6 y i e e e e w 9 u g.x.>.X.#.X.#. .#.+.-._ x M / X.8.k.p 9 w e e e e q q i y e e e w 3.y.3.2.#. .K m ",
"w.l.<.#.#. .E N e w e e e 6 y i e e e e 9 i w.g.-.-.#.X.#.X.#.#.+._ x H _ %.%.%.8.x.p 9 w e e e q q i y e e w w 3.y.3.>.#.#.G G ",
"q.x.>.<. .,.E b e w e e w 6 y i e e e 9 i w.g.%.X.-.X.X.#.#.#.#._ M H _ -.%.+.+.X.8.l.p 9 w e e 9 q i y e e w w <.g.X.X.X.#.K x ",
"q.x.6.#.,.,.E b e w e e w q y i e e 9 i w.g.%.%.X.X.X.<.#.#.#._ M H _ +.%.%.+.+.-.-.w.x.p 9 w e 9 q i y e e e w 3.i.<.-.#.X.L m ",
"i.l.#.X.>.2.:.b e w e e w 6 y i e 9 i y.a.%.+.+.%.%.%.%.#.#.{ N L _ %.+.+.+.+.+.X.>.X.w.k.p 0 w 9 q i y e e e w 3.x.#.X.#.X.K x ",
"w.l.-.>.2.2.K b e w e e e 6 e y 9 i y.j.%.+.+.+.%.%.%.%.#.{ m p L ! ! { -.-.{ -.X.6.X.X.8.g.p 9 6 q i y e e e w >.i.X.#.X.#.L x ",
"q.x.>.-.X.X.E m w w e e e 8 e w u y.g.%.%.%.+.%.#.#.#.,.` N p e w x x ! %.+.%.+.%.+.+.+.-.8.g.p 6 w i y e e w w 7.x.-.X.X.%.M M ",
"w.k.6.#.-.X.E m e w e e e 6 9 i y.j.%.%.%.%.+.+.#.#. .` N p e 1 < q x b / %.+.%.+.%.+.+.{ -.8.g.p 9 y y e e e w >.x.X.#.%.%.L M ",
"q.x.X.X.%.%.E m e w e e w 6 i x.y.6.<.X.+.+.+.+.#.#. .N p e 1 = - < q x b U %.X.-.{ +.+.+.+.-.8.z.p w e e e e w 7.x.X.#.%.%.L M ",
"q.x.<.X.%.%.E m w e e w 9 i y.z.3.>.>.6.-.+.+.+.5.` b p t 1 - 3 6 - < q b b U X.+.-.+.+.%.-.{ +.y.y.p 9 w e w w >.k.>.-.%.X.L M ",
"w.g.%.%.+.%.U x e w w 9 i 8.g.-.%.-.{ -.{ +.-.{ >.m p e 1 = 5 e e 6 - < q n x ! +.-.<.X.%.%.+.+.>.q.h.p 9 w w w %.g.+.+.%.+.M M ",
"w.g.%.%.%.+.U x w w 9 i i.g.%.+.+.{ -.+.-.+.-._ K p t 1 - 3 e e e e 6 - < q x x ! { X.X.%.%.+.+.<.<.q.h.p 9 w w <.a.+.%.+.+.H M ",
"w.k.<.%.X.X.U m w 9 i w.g.-.%.+.+.-.+.+.%.-._ M p e 1 = 3 e e e e e e 6 - < q x x T X.X.%.%.+.+.#.X.X.q.x.a 9 w <.i.%.%.X.#.H M ",
"w.k.<.X.<.X.! x w u i.g.%.X.-.{ -.{ +.+.%.{ M x e 1 - 6 e e e e e e e e 6 - < w x x ! X.%.%.+.+.X.<.X.X.w.i.a q :.g.X.X.-.#.H M ",
"w.k.X.X.+.%.U x e S w.7.%.%.%.+.<.#. .X.` m p e 1 - 6 u e e e e e e e e q 5 : , q x b ! X.-.X.-.<.X.6.X...-._ w +.f.+.+.+.+.A M ",
"w.x.6.X.%.+.U j r M $.$.%.%.+.%. .#.#. .m m e < - 1 t i e e e e e e e e q q 6 ; < q x b ! X.#.-.X.#.%.%.-.+.T w +.f.%.+.+.+.J M ",
"w.k.<.X.%.%.) n r n $.j 7 t +.+.#.#. .K b e 1 - 2 9 t i e e e e r e e e q 6 y w - < q n b L X.>.%.%.M 7 r ..[ w ( d.%.%.+.+.J M ",
"w.k.6.X.%.%.) s w n -.3 . # A +.#. .N p w 1 - 3 w 6 t i e e e e e e e e q q y u 7 - < q b b E X.%.%.6 . # s T w ( d.%.+.+.%.J M ",
"w.x.%.%.-.%.U n r B -.8 O ; / +. .N p e , = 5 e q 6 y i e e e e e e e r w 9 y u e 6 - < w x p T %.+.w @ - j T w | a.+.-.-.+.J M ",
"q.x.%.a t / U x w j -.[ i A +.+.K p e 1 - 5 w e e 6 y i e e e e e e e e 9 9 y u e e 6 - < q x b U +.[ a B +.T w | a.[ u i +.H M ",
"q.k.s $ X 0 / x r j +.+.+.+._ _ K e 1 - 5 w e e w 6 y i e e e t e e e e w 8 y u e e e 6 ; < w p L _ +.+.+.+.J w ( g.r X # a J M ",
"q.k.p $ X 0 _ x 0 0 w w e w e w e 6 6 6 q 6 9 w q q w w 6 e 6 e q w 6 q 9 9 w w 9 9 w 9 6 6 8 w w w e w w w w 8 s 7.w X # i J M ",
"8.l.-.t w / J w t p M n n n n V m ) E ) ) ) ) ) ) ) ) ) ) ) ) U :.:.E :.K :.K :.! ) ) E ) :.) V n n n x n n n t q M / r t +.M M ",
"w.l.%.-.-.J w t _ q.g.g.j.l.j.j.g.g.k.g.x.x.l.l.k.k.k.g.x.g.g.g.y.y.s.s.s.s.s.y.i.g.x.i.x.x.l.l.j.d.l.l.j.l.j.%.u q M -.-.+.J M ",
"w.g.%.+.J w t _ a 2 r %.%.%.<.%.+.+.%.%.>.X.<.X.>.-.%.%.X.>.%.+.3.2.,.#.#.#.,.,.+.-.{ -.| #.#.X.$.+.%.%.$.t 2 u %.t q M -.+.A M ",
"8.g.-.J w t _ +., . % M %.%.%.%.+.+.%.%.#.#.X.#.X.X.%.X.X.-.+.%.>.2.,.#.#.#.#.#.+.%.-.{ X.>.X.#.+.%.%.%./ * . ; %.+.u q s +.T H ",
"-.%.M w t _ %.%.8 # 1 _ +.+.+.+.#.X.-.%.+.+.%.%.%.%.%.%.%.%.%.%.#.X.#.X. . .#.#.+.+.+.-.+.%.%.%.%.+.%.+.X.2 # 6 %.%.| u w x { _ ",
"%.U w t _ %.%.%._ s ! %.+.+.+.+.X.#.X.X.-.+.+.%.%.%.%.%.X.X.%.%.X.#.X.#.#.#.<. .%.%.+.+.+.+.%.%.+.%.+.%.X.! s _ %.X.X.| u w M +.",
"s w t / ! L U U U ! ! H U J J ! T L L T H H U L U U A U ! L L ! E L T L T L T K U U U U J U U U U U U S ! L L U U L U ! _ u w a ",
"w r / _ M M M M M M M M M M M M x G x x H M M M x M M M M m m M M M m m m K m m M M M M M x M M M M x A M M M M M M x L _ { t 0 "
};
